<svg xmlns="http://www.w3.org/2000/svg" width="71.42" height="71.417" viewBox="0 0 71.42 71.417">
  <g id="Group_109" data-name="Group 109" transform="translate(-2346 -4280.438)">
    <g id="Group_108" data-name="Group 108">
      <g id="Group_107" data-name="Group 107">
        <g id="fountain-pen-of-large-size-svgrepo-com" transform="translate(2346 4280.438)">
          <path id="Path_1" data-name="Path 1" d="M1.05,67.453l2.914,2.915c-1.908,1-3.21,1.322-3.722.81S.049,69.363,1.05,67.453Zm-.7-2.285,5.9,5.9a52.064,52.064,0,0,0,12-6.963L7.309,53.167A52.075,52.075,0,0,0,.348,65.169Zm27.229-34.01L40.258,43.841c-1.914,2.146-3.965,4.322-6.143,6.5A142.612,142.612,0,0,1,19.609,63.1L8.32,51.808A142.718,142.718,0,0,1,21.076,37.3C23.255,35.126,25.431,33.073,27.576,31.159ZM20.219,57.465c-.847.646-.028,2.112.827,1.457,5.651-4.31,10.383-9.546,15.364-14.581a.839.839,0,0,0-1.186-1.185C30.356,48.075,25.743,53.25,20.219,57.465ZM68.488,17.086,44.716,40.859a9.983,9.983,0,0,1-3.01,2.058L28.5,29.713A9.961,9.961,0,0,1,30.558,26.7L51.171,6.09,47.716,7.108l-17.75,17.75a1.257,1.257,0,0,1-1.778-1.778L46.165,5.1a1.256,1.256,0,0,1,.534-.318L54.974,2.35A10.007,10.007,0,0,1,68.488,17.086ZM65.3,4.19c-.846-.648-2.042.529-1.185,1.185C66.776,7.41,67.069,11.138,65.611,14c-.489.96.965,1.794,1.457.827C68.83,11.37,68.552,6.678,65.3,4.19Z" transform="translate(0 -0.002)" fill="#24195d"/>
        </g>
      </g>
    </g>
  </g>
</svg>
