<svg xmlns="http://www.w3.org/2000/svg" width="179.188" height="168.342" viewBox="0 0 179.188 168.342">
  <g id="Group_106" data-name="Group 106" transform="translate(-4157.125 -4074.737)">
    <g id="Group_105" data-name="Group 105">
      <g id="Group_104" data-name="Group 104">
        <g id="Group_103" data-name="Group 103">
          <g id="Group_102" data-name="Group 102">
            <g id="Group_101" data-name="Group 101">
              <g id="notebook-and-pencil-hand-drawn-writing-tools-svgrepo-com" transform="translate(4157.125 4132.428) rotate(-30)">
                <g id="Group_1" data-name="Group 1" transform="translate(0 0)">
                  <path id="Path_2" data-name="Path 2" d="M68.394,10.815c-1.653-5.832-7.239-9.509-13.158-9.588A1.545,1.545,0,0,0,52.769.349c-9.839,7.22-17.2,17.281-25.012,26.524C21.576,34.189,15.851,42.7,8.038,48.367a1.925,1.925,0,0,0-.661,2.079A1.357,1.357,0,0,0,6.3,51.478,148.978,148.978,0,0,1,.12,71.645c-.58,1.457,1.059,2.5,2.288,2.289,7.669-1.3,14.14-6.516,20.26-10.98a1.932,1.932,0,0,0,.767-2.008c6.726-5.808,12.52-12.88,19.023-18.958s12.826-12.26,19.389-18.241C65.091,20.791,69.79,15.737,68.394,10.815ZM26.657,33.859c7.965-10.225,16.8-21.6,27.064-29.69a1.479,1.479,0,0,0,.44.178,23.262,23.262,0,0,1,4.651,1.32c-.011.015-.023.024-.033.04-7.82,11.328-18.61,20.119-27.487,30.56-3.559,4.187-7.547,8-11.182,12.126-1.614,1.83-4.093,4.393-4.626,7.012a6.574,6.574,0,0,0-5.9-4.006C16.667,48.626,22.178,39.606,26.657,33.859ZM11.666,66.139A9.389,9.389,0,0,0,9.3,63.318a2.347,2.347,0,0,0-2.035-.489A45.409,45.409,0,0,0,9.16,53.452c2.2.453,3.8,1.751,3.874,4.282a1.511,1.511,0,0,0,1.484,1.484,4.266,4.266,0,0,1,3.807,2.306C16.174,63.114,13.968,64.722,11.666,66.139ZM60.305,19.9C56.339,24,51.823,27.69,47.725,31.681c-8.6,8.376-20.734,16.528-26.03,27.693a1.682,1.682,0,0,0-.921.344h0a6.743,6.743,0,0,0-3.989-3.078c2.729-2.507,4.92-6.146,7.426-8.879,3.539-3.862,7.334-7.5,10.61-11.593,8.2-10.254,19-18.048,26.373-29.048.021-.031.031-.06.049-.091a12.219,12.219,0,0,1,2.634,2.586C66.64,13.277,62.653,17.466,60.305,19.9Z" transform="translate(58.209 64.694)" fill="#ffa200"/>
                  <path id="Path_3" data-name="Path 3" d="M115.341,57.474c-1.565-8.592-2.6-17.169-2.058-25.91.393-6.314,1.509-12.513,1.351-18.865C114.35,1.28,106.121.508,96.456.167,82.688-.318,68.654.38,54.891.641,42.963.866,29.994.136,18.274,2.552c-4.3.887-6.09,3.965-6.719,7.705-3.57,1.159-8.313,3.21-9.454,7.009-1.013,3.368,1.745,5.247,4.852,6.175-4.443,4-3.677,13.049,1.077,15.985-5.548,3.228-4.714,9.784-.706,13.126A9.759,9.759,0,0,0,1.419,63.535a8.189,8.189,0,0,0,4.719,6.01C1.591,71.269-1.207,75.994.511,80.818a10.164,10.164,0,0,0,5.251,5.568c-.327.16-.661.3-.977.482C.606,89.25-.571,93.855,1.288,98.09a9.61,9.61,0,0,0,4.382,4.559C2.2,104.715-.11,108.465.59,112.678c.981,5.9,7.711,8.187,12.879,7.272a6.985,6.985,0,0,0,1.242,1.706c3.614,3.571,9.1,3.461,13.883,3.807,8.715.63,17.376,1.98,26.127,2.306,2.03.075,2.27-2.824.462-3.413-7.021-2.288-14.472-1.7-21.681-2.98-4.564-.809-14.276.924-16.275-4.6-.99-2.734-.407-6.351-.375-9.206.006-.574-.007-1.15-.013-1.725a23.984,23.984,0,0,1,3.6,1.8,9.052,9.052,0,0,1,3.089,2.868c.684,1.114-.778,1.647-1.207,2.578a1.571,1.571,0,0,0,1.334,2.326c1.941.163,3.586-1.724,3.847-3.547.314-2.2-.974-4.042-2.474-5.509a20.18,20.18,0,0,0-8.291-4.674c-.085-2.293-.186-4.586-.208-6.872-.018-1.891-.009-3.784,0-5.676a15.948,15.948,0,0,1,2.712,1.131,10.82,10.82,0,0,1,4.187,4.046c.9,1.5.46,3.1.923,4.678a1.629,1.629,0,0,0,2.942.384c3.143-4.1-2.159-9.834-5.3-12.011a15.136,15.136,0,0,0-5.418-2.339c.06-3.86.163-7.722.278-11.582A20.7,20.7,0,0,1,20.562,75a8.335,8.335,0,0,1,3.2,2.91c.919,1.482-.083,2.91.041,4.454.091,1.131,1.379,2.22,2.491,1.429,4.481-3.185.757-9.075-2.466-11.494a18.212,18.212,0,0,0-6.842-3.022c.027-.839.05-1.678.077-2.517.106-3.331.225-6.653.321-9.97A23.071,23.071,0,0,1,20.2,58.14a9.347,9.347,0,0,1,3.4,3.226c.982,1.61.075,3.107.118,4.791a1.755,1.755,0,0,0,2.966,1.228c4.2-3.6-.085-9.631-3.267-12.045A18.877,18.877,0,0,0,17.5,52.407c.074-3.649.094-7.294.018-10.938A10.028,10.028,0,0,1,25.266,51.75c-.2,2.561,3.8,2.55,3.987,0C29.826,44.082,24.081,38.686,17.4,37.7c-.131-3.169-.348-6.338-.692-9.512-.1-.888-.185-1.777-.274-2.666a18.96,18.96,0,0,1,5.587,1.93A6.709,6.709,0,0,1,25.2,30.471c.6,1.466-.464,2.844-.981,4.16-.7,1.794,1.728,2.693,2.919,1.7,3.942-3.29,2.022-8.792-1.6-11.354a20.339,20.339,0,0,0-9.474-3.494c-.214-2.787-.349-5.58-.31-8.379a18.813,18.813,0,0,1,8.793-.171c4.206,1.1,2.379,4.181,2.2,7.307a1.868,1.868,0,0,0,3.169,1.312A7.807,7.807,0,0,0,27.306,9.695C24.052,8.231,20.225,8.3,16.615,8.966,17.994,6.418,21,6.26,25.238,5.9c22.517-1.924,45.614-1.376,68.2-1.359,4.617,0,9.41.082,13.862,1.411,4.587,1.37,2.919,11.433,2.645,14.966-1,12.958-1.176,24.812,1.193,37.718C111.651,61.391,115.84,60.218,115.341,57.474ZM5.76,18.119c.89-1.826,3.307-2.952,5.5-3.715.018,2.432.29,4.909.521,7.1-.409.048-.82.085-1.221.162a29,29,0,0,1-3.8-1.978C5.777,19.051,5.557,18.535,5.76,18.119Zm6.369,7.331q.495,6.167.722,12.282c-.275.044-.548.1-.821.164C6.775,35.792,6.008,26.539,12.129,25.45ZM5.222,97.323c-2.24-3.029-.631-5.883,2.3-7.546a10.009,10.009,0,0,1,4.827-1.254c-.049,4.149-.069,8.3-.027,12.449a13.61,13.61,0,0,0-2.121.108A11.943,11.943,0,0,1,5.222,97.323ZM4.4,112.181c-1.158-3.751,3.134-7,6.448-7.348a9.756,9.756,0,0,1,1.423-.032c-.19,3.818-.7,8.89.307,12.8C9.159,117.194,5.5,115.735,4.4,112.181Zm8-27.506a16.87,16.87,0,0,0-2.062.222c-2.614-.905-4.972-2.413-6.107-5.105-1.77-4.2,2.463-6.811,6.135-7.12a15.435,15.435,0,0,1,2.32,0Q12.512,78.672,12.4,84.675Zm.392-15.962c-.043,0-.084,0-.127,0a.769.769,0,0,0-.468-.295c-3.127-.63-5.8-2.251-6.8-5.394-1.108-3.485,1.723-6.393,4.909-7.175a8.453,8.453,0,0,1,2.736-.166Q12.982,62.168,12.794,68.713Zm-.775-17.1a8.232,8.232,0,0,1-3.9-3.6c-1.175-2.272.421-4.4,2.317-5.53a9.4,9.4,0,0,1,2.51-1.037c.083,3.391.133,6.78.128,10.172C12.72,51.611,12.369,51.613,12.018,51.618Z" transform="translate(0)" fill="#ffa200"/>
                  <path id="Path_4" data-name="Path 4" d="M27.564,16.219c-.315-4.636.267-10.267-1.245-14.694A2.094,2.094,0,0,0,24.86.066c-3.324-.626-2.5,3.325-2.323,5.291.413,4.547.806,9.3.758,13.856C23.218,26.6,5.461,21.8,1.2,23a1.7,1.7,0,0,0,0,3.245c3.482,1.295,8.094,1.027,11.755,1.215,3.959.2,7.438.177,11.047-1.649C27.645,23.973,27.8,19.748,27.564,16.219Z" transform="translate(89.5 100.89)" fill="#ffa200"/>
                  <path id="Path_5" data-name="Path 5" d="M51.195,2.668a3.542,3.542,0,0,0-2.239-.692C39.807-.336,29.966.209,20.614.035c-5.95-.11-13.94-.1-19.529,2.174-1.239.5-1.641,2.607,0,2.927,5.9,1.154,12.573-.373,18.554-.475C29.29,4.5,40.107,4.176,49.405,6.91,51.981,7.668,53.408,4.03,51.195,2.668Z" transform="translate(45.663 19.168)" fill="#ffa200"/>
                  <path id="Path_6" data-name="Path 6" d="M52.118,3.607C47.061-1.293,35.848.1,29.521.459A155.338,155.338,0,0,0,.986,4.433C-.6,4.833-.124,7,1.35,7.127c7.982.7,16.563-1.136,24.519-1.822a116.291,116.291,0,0,1,14.072-.48c3.774.132,7.239,1.521,10.927,1.795A1.778,1.778,0,0,0,52.118,3.607Z" transform="translate(44.816 34.741)" fill="#ffa200"/>
                  <path id="Path_7" data-name="Path 7" d="M51.871,2.877C50.784-2.045,31.9.81,28.655.949c-6.347.272-12.7.6-19.027,1.153C6.945,2.334,2.659,1.975.343,3.617a.724.724,0,0,0,0,1.232c1.891,1.28,5.089.784,7.236.768,5.684-.041,11.366-.193,17.046-.379,5.453-.177,10.91-.334,16.367-.395,2.083-.024,4.166-.012,6.247.077.627.027,3.5.641,2.119-.113A1.726,1.726,0,0,0,51.871,2.877Z" transform="translate(44.113 52.019)" fill="#ffa200"/>
                  <path id="Path_8" data-name="Path 8" d="M26.535.835c-4.3-1.278-8.884-.825-13.28-.37C9.3.874,4.248.743.551,2.167a.778.778,0,0,0-.183,1.4c2.619,1.828,6.981.97,9.963.813,5.117-.271,10.01-.439,15.063.6C28.092,5.532,29.211,1.631,26.535.835Z" transform="translate(44.961 69.551)" fill="#ffa200"/>
                </g>
              </g>
            </g>
          </g>
        </g>
      </g>
    </g>
  </g>
</svg>
